<?xml version="1.0" encoding="utf-8"?>
<!-- Generator: Adobe Illustrator 26.2.1, SVG Export Plug-In . SVG Version: 6.00 Build 0)  -->
<svg version="1.1" id="Layer_1" xmlns="http://www.w3.org/2000/svg" xmlns:xlink="http://www.w3.org/1999/xlink" x="0px" y="0px"
	 viewBox="0 0 225 31" style="enable-background:new 0 0 225 31;" xml:space="preserve">
<style type="text/css">
	.st0{fill:#FFFFFF;}
</style>
<path class="st0" d="M24.5,2.2L16.7,20L8.9,2.2H0.1v26.3h5.2V6.7l8.1,18.3h6l8.1-18.3v21.9h5.7V2.2H24.5z"/>
<path class="st0" d="M67.4,15.4c0-5,1.3-8.5,3.9-10.6s6.2-3.1,10.8-3.1c4.2,0,7.6,0.7,10,2.1c2.4,1.4,3.8,3.8,4.2,7.1h-5.8
	c-0.1-0.8-0.3-1.6-0.8-2.2c-0.5-0.7-1.1-1.2-1.8-1.5c-1.8-0.7-3.8-1-5.7-0.9c-2.3-0.1-4.5,0.5-6.4,1.6c-1.7,1.1-2.5,3.1-2.5,6.1v2.8
	c0,2.9,0.8,4.9,2.4,6.1c1.9,1.2,4.2,1.8,6.5,1.7c1.9,0.1,3.8-0.2,5.6-0.9c0.7-0.3,1.3-0.8,1.8-1.4c0.5-0.6,0.8-1.3,0.9-2.1h5.8
	c-0.1,1.4-0.6,2.8-1.3,3.9c-0.7,1.2-1.8,2.2-3,2.9c-2.4,1.3-5.6,2-9.9,2c-2.1,0-4.2-0.2-6.2-0.7c-1.7-0.4-3.3-1.2-4.6-2.3
	c-1.3-1.1-2.3-2.6-2.9-4.2C67.7,19.7,67.3,17.6,67.4,15.4"/>
<path class="st0" d="M99.6,2.3h26.2v26.3H120V6.9h-14.6v21.6h-5.8V2.3z"/>
<path class="st0" d="M130.7,2.3h16.8c3.1,0,5.4,0.8,6.9,2.3c0.8,0.9,1.4,1.9,1.8,3c0.4,1.1,0.5,2.3,0.5,3.4c0.1,2.4-0.7,4.7-2.2,6.4
	c-1.5,1.5-3.8,2.3-6.9,2.3h-11v8.8h-5.8L130.7,2.3z M150.9,11.6v-1.1c0-1-0.3-1.9-1-2.7c-0.4-0.4-0.9-0.6-1.4-0.8
	c-0.5-0.2-1.1-0.2-1.7-0.2h-10.2v8.4h10.3c0.6,0.1,1.1,0,1.7-0.2c0.5-0.2,1-0.5,1.5-0.8C150.6,13.5,150.9,12.6,150.9,11.6"/>
<path class="st0" d="M215.3,2.3L207.5,20l-7.8-17.8H191v26.3h5.2V6.7l8.1,18.3h6l8.1-18.3v21.9h5.7V2.3H215.3z"/>
<path class="st0" d="M173,24.7c-1.8,0-3.6-0.5-5.2-1.6c-1.5-1-2.7-2.5-3.4-4.2c-0.7-1.7-0.9-3.6-0.5-5.4c0.4-1.8,1.2-3.5,2.5-4.8
	c1.3-1.3,3-2.2,4.8-2.5c1.8-0.4,3.7-0.2,5.4,0.5c1.7,0.7,3.2,1.9,4.2,3.4c1,1.5,1.6,3.3,1.6,5.2c0,2.5-1,4.8-2.7,6.6
	C177.8,23.7,175.5,24.7,173,24.7z M187.7,13.9l-6-10.4c-0.3-0.5-0.7-0.9-1.1-1.1c-0.5-0.3-1-0.4-1.6-0.4h-12c-0.5,0-1.1,0.1-1.5,0.4
	c-0.5,0.3-0.8,0.7-1.1,1.1l-6,10.4c-0.3,0.5-0.4,1-0.4,1.5c0,0.5,0.1,1.1,0.4,1.5l6,10.5c0.3,0.5,0.7,0.9,1.1,1.1
	c0.5,0.3,1,0.4,1.5,0.4h12c0.5,0,1.1-0.1,1.5-0.4c0.5-0.3,0.9-0.7,1.1-1.1l6-10.5c0.3-0.5,0.4-1,0.4-1.5
	C188.1,14.9,187.9,14.3,187.7,13.9"/>
<path class="st0" d="M58.8,20.1c-0.9,1.6-2.3,2.9-3.9,3.7c-1.6,0.8-3.5,1.1-5.3,0.9c-1.8-0.2-3.5-1-4.9-2.2
	c-1.4-1.2-2.4-2.8-2.9-4.6c-0.5-1.8-0.4-3.7,0.2-5.4c0.6-1.7,1.7-3.3,3.1-4.4c1.5-1.1,3.2-1.8,5.1-1.9s3.7,0.3,5.3,1.2
	c1.1,0.6,2,1.4,2.7,2.4s1.3,2.1,1.6,3.3c0.3,1.2,0.4,2.4,0.2,3.6C59.8,17.8,59.4,19,58.8,20.1z M62.7,6.7l-10.5-6
	c-0.5-0.3-1-0.4-1.5-0.4s-1.1,0.1-1.5,0.4l-10.5,6c-0.5,0.3-0.9,0.7-1.1,1.1c-0.3,0.5-0.4,1-0.4,1.5v12.1c0,0.5,0.1,1.1,0.4,1.5
	c0.3,0.5,0.7,0.9,1.1,1.1l10.5,6c0.5,0.3,1,0.4,1.5,0.4s1.1-0.1,1.5-0.4l10.5-6c0.5-0.3,0.8-0.7,1.1-1.1c0.3-0.5,0.4-1,0.4-1.5V9.4
	c0-0.5-0.1-1.1-0.4-1.5C63.6,7.4,63.2,7,62.7,6.7"/>
</svg>
